<svg width="1581" height="274" viewBox="0 0 1581 274" fill="none" xmlns="http://www.w3.org/2000/svg">
<path d="M9.24 150.6C9.24 136.74 11.3667 124.603 15.62 114.19C19.8733 103.703 25.8133 94.94 33.44 87.9C41.0667 80.86 49.94 75.58 60.06 72.06C70.18 68.54 81.1067 66.78 92.84 66.78C100.393 66.78 106.7 67.22 111.76 68.1C116.893 68.9067 121.293 69.8233 124.96 70.85C128.7 71.8767 132.22 72.72 135.52 73.38L130.24 108.58C128.7 107.553 126.5 106.307 123.64 104.84C120.853 103.3 117.187 101.98 112.64 100.88C108.167 99.7067 102.667 99.12 96.14 99.12C87.78 99.12 80.2267 101.027 73.48 104.84C66.7333 108.58 61.38 114.117 57.42 121.45C53.46 128.71 51.48 137.62 51.48 148.18C51.48 158.96 53.2033 168.383 56.65 176.45C60.17 184.517 65.3767 190.823 72.27 195.37C79.1633 199.843 87.7067 202.08 97.9 202.08C102.52 202.08 107.213 201.53 111.98 200.43C116.747 199.257 121.037 197.863 124.85 196.25C128.663 194.637 131.487 193.06 133.32 191.52V225.18C130.533 226.353 127.233 227.6 123.42 228.92C119.68 230.24 115.317 231.377 110.33 232.33C105.343 233.283 99.66 233.76 93.28 233.76C75.24 233.76 59.95 230.35 47.41 223.53C34.9433 216.71 25.4467 207.067 18.92 194.6C12.4667 182.133 9.24 167.467 9.24 150.6ZM193.942 159.84L192.402 131.02C193.869 126.547 196.325 122.55 199.772 119.03C203.292 115.51 207.472 112.76 212.312 110.78C217.225 108.727 222.542 107.7 228.262 107.7C230.022 107.7 231.782 107.81 233.542 108.03C235.302 108.25 236.549 108.58 237.282 109.02V148.4C236.329 147.74 234.825 147.08 232.772 146.42C230.719 145.687 227.822 145.32 224.082 145.32C218.215 145.32 213.265 146.2 209.232 147.96C205.272 149.647 202.045 151.627 199.552 153.9C197.132 156.173 195.262 158.153 193.942 159.84ZM156.542 232V109.46H191.302L193.282 131.24L196.362 134.54V232H156.542ZM311.879 233.76C292.079 233.76 276.973 228.15 266.559 216.93C256.146 205.637 250.939 190.053 250.939 170.18C250.939 158.3 253.359 147.667 258.199 138.28C263.039 128.893 270.006 121.487 279.099 116.06C288.266 110.633 299.339 107.92 312.319 107.92C318.846 107.92 325.153 108.69 331.239 110.23C337.326 111.697 342.789 114.3 347.629 118.04C352.469 121.707 356.356 126.767 359.289 133.22C362.223 139.673 363.726 147.813 363.799 157.64C363.799 162.04 363.653 166.22 363.359 170.18C363.139 174.14 362.846 177.44 362.479 180.08H271.399L273.599 160.28H326.839C327.206 154.34 326.913 149.39 325.959 145.43C325.079 141.397 323.429 138.39 321.009 136.41C318.663 134.43 315.473 133.44 311.439 133.44C306.819 133.44 302.896 134.723 299.669 137.29C296.516 139.783 294.133 144.11 292.519 150.27C290.906 156.43 290.173 164.973 290.319 175.9C290.466 183.013 291.749 188.77 294.169 193.17C296.663 197.497 300.183 200.65 304.729 202.63C309.276 204.61 314.739 205.6 321.119 205.6C325.079 205.6 329.223 205.307 333.549 204.72C337.876 204.133 341.873 203.363 345.539 202.41C349.279 201.457 352.139 200.467 354.119 199.44L360.279 220.56C357.566 222.76 353.789 224.887 348.949 226.94C344.183 228.92 338.609 230.57 332.229 231.89C325.923 233.137 319.139 233.76 311.879 233.76ZM467.574 232V217.48L464.274 215.06V134.76L465.154 133.88L464.274 97.8V53.36H503.434V232H467.574ZM429.954 233.76C421.301 233.76 413.344 231.633 406.084 227.38C398.824 223.053 392.994 216.563 388.594 207.91C384.194 199.183 381.994 188.22 381.994 175.02C381.994 161.16 384.524 149.207 389.584 139.16C394.717 129.113 401.904 121.413 411.144 116.06C420.457 110.633 431.347 107.92 443.814 107.92C451.441 107.92 457.601 108.653 462.294 110.12C466.987 111.587 469.994 112.833 471.314 113.86L464.494 138.94C462.881 137.62 460.461 136.703 457.234 136.19C454.081 135.677 450.634 135.42 446.894 135.42C442.274 135.42 438.167 136.813 434.574 139.6C431.054 142.313 428.267 146.457 426.214 152.03C424.161 157.603 423.134 164.607 423.134 173.04C423.061 184.48 424.894 192.51 428.634 197.13C432.374 201.75 437.361 204.06 443.594 204.06C447.481 204.06 451.367 203.473 455.254 202.3C459.214 201.053 462.294 199.66 464.494 198.12L468.454 218.14C466.767 219.973 464.274 222.137 460.974 224.63C457.747 227.05 453.567 229.177 448.434 231.01C443.374 232.843 437.214 233.76 429.954 233.76ZM536.846 232V109.46H576.666V232H536.846ZM554.886 94.72C548.506 94.72 543.226 92.8133 539.046 89C534.94 85.1133 532.886 80.2 532.886 74.26C532.886 70.2267 533.986 66.5233 536.186 63.15C538.386 59.7767 541.283 57.1 544.876 55.12C548.543 53.0667 552.54 52.04 556.866 52.04C563.393 52.04 568.636 53.9467 572.596 57.76C576.63 61.5 578.646 66.4133 578.646 72.5C578.646 78.5133 576.336 83.72 571.716 88.12C567.096 92.52 561.486 94.72 554.886 94.72ZM648.189 233.76C639.389 233.76 632.349 232.293 627.069 229.36C621.862 226.427 618.085 222.027 615.739 216.16C613.465 210.22 612.329 202.813 612.329 193.94V135.64H598.249V114.52C603.675 112.98 608.149 111.403 611.669 109.79C615.189 108.103 617.755 105.573 619.369 102.2C620.175 100.513 621.055 98.4967 622.009 96.15C622.962 93.8033 623.952 91.3467 624.979 88.78C626.005 86.2133 626.995 83.7933 627.949 81.52H652.149V109.46H683.829V135.64H652.149V179.2C652.149 186.827 652.552 192.4 653.359 195.92C654.239 199.44 655.705 201.677 657.759 202.63C659.812 203.583 662.635 204.06 666.229 204.06C668.062 204.06 670.152 203.84 672.499 203.4C674.845 202.887 677.082 202.263 679.209 201.53C681.335 200.797 683.022 200.027 684.269 199.22L688.889 221.22C686.982 223.127 683.939 225.07 679.759 227.05C675.652 228.957 670.849 230.57 665.349 231.89C659.849 233.137 654.129 233.76 648.189 233.76ZM711.76 232V68.54H752.24V199H807.46V232H711.76ZM830.108 232V109.46H869.928V232H830.108ZM848.148 94.72C841.768 94.72 836.488 92.8133 832.308 89C828.201 85.1133 826.148 80.2 826.148 74.26C826.148 70.2267 827.248 66.5233 829.448 63.15C831.648 59.7767 834.545 57.1 838.138 55.12C841.805 53.0667 845.801 52.04 850.128 52.04C856.655 52.04 861.898 53.9467 865.858 57.76C869.891 61.5 871.908 66.4133 871.908 72.5C871.908 78.5133 869.598 83.72 864.978 88.12C860.358 92.52 854.748 94.72 848.148 94.72ZM902.07 232V109.46H938.37L939.25 123.76C941.817 121.193 945.19 118.7 949.37 116.28C953.55 113.86 958.207 111.843 963.34 110.23C968.474 108.617 973.79 107.773 979.29 107.7C991.757 107.48 1001.11 110.89 1007.34 117.93C1013.57 124.897 1016.69 137.18 1016.69 154.78V232H976.87V162.04C976.87 153.093 975.734 146.97 973.46 143.67C971.187 140.297 967.117 138.72 961.25 138.94C959.344 138.94 957.217 139.233 954.87 139.82C952.524 140.407 950.177 141.287 947.83 142.46C945.557 143.633 943.504 145.1 941.67 146.86V232H902.07ZM1166.56 109.46L1083.84 198.56L1084.94 190.42L1085.38 211.76V232H1046.22V159.18V53.58H1085.38V121.12L1083.62 166.22L1079 160.72L1121.24 109.46H1166.56ZM1094.84 180.74L1120.8 153.24L1169.42 232H1125.2L1094.84 180.74Z" fill="#161C2D"/>
<path d="M1472.37 198.91C1472.37 205.519 1475.26 209.228 1479.96 209.228C1484.54 209.228 1490.25 204.305 1492.34 193.919L1495.09 179.15C1493.88 178.139 1491.4 177.262 1488.71 177.262C1479.16 177.195 1472.37 188.389 1472.37 198.91Z" fill="#003399"/>
<path d="M1361.62 177.195C1352.34 177.195 1347.7 190.75 1347.77 199.247C1347.77 205.654 1350.86 209.902 1356.44 209.902C1365.25 209.902 1370.16 197.022 1370.16 187.648C1370.23 182.59 1368.14 177.195 1361.62 177.195Z" fill="#003399"/>
<path d="M1535.44 118.793C1536.25 76.5759 1513.85 43.1937 1474.72 28.8966C1452.39 20.7365 1426.91 19.7924 1402.91 26.1991C1379.98 32.336 1360.41 44.475 1345.75 61.537C1334.65 51.6909 1320.13 46.161 1304.66 46.161C1268.96 46.161 1237.76 75.2945 1235.14 111.105C1234.94 113.87 1234.94 116.567 1235.07 119.332C1212.21 132.483 1197.08 156.019 1195.2 181.915C1192.51 219.074 1217.86 250.635 1254.3 255.289L1254.77 255.356L1514.19 254.749H1514.93L1515.67 254.614C1548.35 247.668 1573.83 218.602 1576.19 185.557C1578.34 155.614 1562.13 129.448 1535.44 118.793ZM1276.15 208.351C1281.4 208.351 1286.64 207.475 1290.41 205.856L1291.75 218.872C1287.72 220.693 1280.93 222.109 1271.92 222.109C1252.08 222.109 1238.63 210.037 1238.63 190.075C1238.63 173.148 1246.23 159.93 1257.6 152.377C1265.4 146.915 1274.68 144.284 1285.3 144.284C1293.44 144.284 1299.55 146.173 1301.71 147.521L1297.34 160.605C1295.12 159.458 1290.21 158.109 1283.75 158.109C1277.3 158.109 1271.11 160.133 1266.54 163.909C1260.15 169.034 1256.18 177.667 1256.18 188.187C1256.18 200.259 1262.91 208.351 1276.15 208.351ZM1315.76 220.962H1299.69L1314.89 141.519H1330.96L1315.76 220.962ZM1354.29 222.244C1340.44 222.244 1331.16 213.207 1331.16 199.652C1331.16 180.634 1344.34 165.056 1363.77 165.056C1378.36 165.056 1386.9 175.104 1386.9 187.58C1386.9 207.542 1373.25 222.244 1354.29 222.244ZM1443.92 203.158C1442.58 210.105 1441.77 216.039 1441.03 220.962H1426.84L1427.85 211.993H1427.65C1422.07 219.141 1415.34 222.176 1408.76 222.176C1400.08 222.176 1394.84 217.253 1394.84 206.868C1394.84 203.833 1395.17 200.596 1395.98 196.819L1401.69 166.269H1417.77L1412.32 195.605C1411.85 198.101 1411.51 200.731 1411.51 202.754C1411.51 206.328 1412.86 209.161 1416.96 209.161C1422.41 209.161 1427.99 202.552 1430.14 191.559L1434.91 166.269H1450.98L1443.92 203.158ZM1507.2 199.719C1505.85 206.8 1504.84 214.488 1504.64 220.962H1489.92L1490.72 212.128H1490.52C1485.75 219.411 1479.02 222.176 1472.63 222.176C1463.36 222.176 1455.69 214.758 1455.69 201.473C1455.69 182.455 1469.41 164.988 1490.05 164.988C1492.27 164.988 1495.16 165.325 1497.51 166.202L1502.22 141.452H1518.29L1507.2 199.719Z" fill="#003399"/>
</svg>
