<svg width="1581" height="274" viewBox="0 0 1581 274" fill="none" xmlns="http://www.w3.org/2000/svg">
<path d="M7.98 159.7C7.98 147.73 9.81667 137.248 13.49 128.255C17.1633 119.198 22.2933 111.63 28.88 105.55C35.4667 99.47 43.13 94.91 51.87 91.87C60.61 88.83 70.0467 87.31 80.18 87.31C86.7033 87.31 92.15 87.69 96.52 88.45C100.953 89.1467 104.753 89.9383 107.92 90.825C111.15 91.7117 114.19 92.44 117.04 93.01L112.48 123.41C111.15 122.523 109.25 121.447 106.78 120.18C104.373 118.85 101.207 117.71 97.28 116.76C93.4167 115.747 88.6667 115.24 83.03 115.24C75.81 115.24 69.2867 116.887 63.46 120.18C57.6333 123.41 53.01 128.192 49.59 134.525C46.17 140.795 44.46 148.49 44.46 157.61C44.46 166.92 45.9483 175.058 48.925 182.025C51.965 188.992 56.4617 194.438 62.415 198.365C68.3683 202.228 75.7467 204.16 84.55 204.16C88.54 204.16 92.5933 203.685 96.71 202.735C100.827 201.722 104.532 200.518 107.825 199.125C111.118 197.732 113.557 196.37 115.14 195.04V224.11C112.733 225.123 109.883 226.2 106.59 227.34C103.36 228.48 99.5917 229.462 95.285 230.285C90.9783 231.108 86.07 231.52 80.56 231.52C64.98 231.52 51.775 228.575 40.945 222.685C30.1783 216.795 21.9767 208.467 16.34 197.7C10.7667 186.933 7.98 174.267 7.98 159.7ZM167.495 167.68L166.165 142.79C167.432 138.927 169.554 135.475 172.53 132.435C175.57 129.395 179.18 127.02 183.36 125.31C187.604 123.537 192.195 122.65 197.135 122.65C198.655 122.65 200.175 122.745 201.695 122.935C203.215 123.125 204.292 123.41 204.925 123.79V157.8C204.102 157.23 202.804 156.66 201.03 156.09C199.257 155.457 196.755 155.14 193.525 155.14C188.459 155.14 184.184 155.9 180.7 157.42C177.28 158.877 174.494 160.587 172.34 162.55C170.25 164.513 168.635 166.223 167.495 167.68ZM135.195 230V124.17H165.215L166.925 142.98L169.585 145.83V230H135.195ZM269.35 231.52C252.25 231.52 239.204 226.675 230.21 216.985C221.217 207.232 216.72 193.773 216.72 176.61C216.72 166.35 218.81 157.167 222.99 149.06C227.17 140.953 233.187 134.557 241.04 129.87C248.957 125.183 258.52 122.84 269.73 122.84C275.367 122.84 280.814 123.505 286.07 124.835C291.327 126.102 296.045 128.35 300.225 131.58C304.405 134.747 307.762 139.117 310.295 144.69C312.829 150.263 314.127 157.293 314.19 165.78C314.19 169.58 314.064 173.19 313.81 176.61C313.62 180.03 313.367 182.88 313.05 185.16H234.39L236.29 168.06H282.27C282.587 162.93 282.334 158.655 281.51 155.235C280.75 151.752 279.325 149.155 277.235 147.445C275.209 145.735 272.454 144.88 268.97 144.88C264.98 144.88 261.592 145.988 258.805 148.205C256.082 150.358 254.024 154.095 252.63 159.415C251.237 164.735 250.604 172.113 250.73 181.55C250.857 187.693 251.965 192.665 254.055 196.465C256.209 200.202 259.249 202.925 263.175 204.635C267.102 206.345 271.82 207.2 277.33 207.2C280.75 207.2 284.329 206.947 288.065 206.44C291.802 205.933 295.254 205.268 298.42 204.445C301.65 203.622 304.12 202.767 305.83 201.88L311.15 220.12C308.807 222.02 305.545 223.857 301.365 225.63C297.249 227.34 292.435 228.765 286.925 229.905C281.479 230.982 275.62 231.52 269.35 231.52ZM403.814 230V217.46L400.964 215.37V146.02L401.724 145.26L400.964 114.1V75.72H434.784V230H403.814ZM371.324 231.52C363.85 231.52 356.979 229.683 350.709 226.01C344.439 222.273 339.404 216.668 335.604 209.195C331.804 201.658 329.904 192.19 329.904 180.79C329.904 168.82 332.089 158.497 336.459 149.82C340.892 141.143 347.099 134.493 355.079 129.87C363.122 125.183 372.527 122.84 383.294 122.84C389.88 122.84 395.2 123.473 399.254 124.74C403.307 126.007 405.904 127.083 407.044 127.97L401.154 149.63C399.76 148.49 397.67 147.698 394.884 147.255C392.16 146.812 389.184 146.59 385.954 146.59C381.964 146.59 378.417 147.793 375.314 150.2C372.274 152.543 369.867 156.122 368.094 160.935C366.32 165.748 365.434 171.797 365.434 179.08C365.37 188.96 366.954 195.895 370.184 199.885C373.414 203.875 377.72 205.87 383.104 205.87C386.46 205.87 389.817 205.363 393.174 204.35C396.594 203.273 399.254 202.07 401.154 200.74L404.574 218.03C403.117 219.613 400.964 221.482 398.114 223.635C395.327 225.725 391.717 227.562 387.284 229.145C382.914 230.728 377.594 231.52 371.324 231.52ZM463.64 230V124.17H498.03V230H463.64ZM479.22 111.44C473.71 111.44 469.15 109.793 465.54 106.5C461.993 103.143 460.22 98.9 460.22 93.77C460.22 90.2867 461.17 87.0883 463.07 84.175C464.97 81.2617 467.472 78.95 470.575 77.24C473.742 75.4667 477.193 74.58 480.93 74.58C486.567 74.58 491.095 76.2267 494.515 79.52C497.998 82.75 499.74 86.9933 499.74 92.25C499.74 97.4433 497.745 101.94 493.755 105.74C489.765 109.54 484.92 111.44 479.22 111.44ZM559.799 231.52C552.199 231.52 546.119 230.253 541.559 227.72C537.063 225.187 533.801 221.387 531.774 216.32C529.811 211.19 528.829 204.793 528.829 197.13V146.78H516.669V128.54C521.356 127.21 525.219 125.848 528.259 124.455C531.299 122.998 533.516 120.813 534.909 117.9C535.606 116.443 536.366 114.702 537.189 112.675C538.013 110.648 538.868 108.527 539.754 106.31C540.641 104.093 541.496 102.003 542.319 100.04H563.219V124.17H590.579V146.78H563.219V184.4C563.219 190.987 563.568 195.8 564.264 198.84C565.024 201.88 566.291 203.812 568.064 204.635C569.838 205.458 572.276 205.87 575.379 205.87C576.963 205.87 578.768 205.68 580.794 205.3C582.821 204.857 584.753 204.318 586.589 203.685C588.426 203.052 589.883 202.387 590.959 201.69L594.949 220.69C593.303 222.337 590.674 224.015 587.064 225.725C583.518 227.372 579.369 228.765 574.619 229.905C569.869 230.982 564.929 231.52 559.799 231.52ZM614.702 230V88.83H649.662V201.5H697.352V230H614.702ZM716.912 230V124.17H751.302V230H716.912ZM732.492 111.44C726.982 111.44 722.422 109.793 718.812 106.5C715.265 103.143 713.492 98.9 713.492 93.77C713.492 90.2867 714.442 87.0883 716.342 84.175C718.242 81.2617 720.743 78.95 723.847 77.24C727.013 75.4667 730.465 74.58 734.202 74.58C739.838 74.58 744.367 76.2267 747.787 79.52C751.27 82.75 753.012 86.9933 753.012 92.25C753.012 97.4433 751.017 101.94 747.027 105.74C743.037 109.54 738.192 111.44 732.492 111.44ZM779.061 230V124.17H810.411L811.171 136.52C813.388 134.303 816.301 132.15 819.911 130.06C823.521 127.97 827.543 126.228 831.976 124.835C836.409 123.442 841.001 122.713 845.751 122.65C856.518 122.46 864.593 125.405 869.976 131.485C875.359 137.502 878.051 148.11 878.051 163.31V230H843.661V169.58C843.661 161.853 842.679 156.565 840.716 153.715C838.753 150.802 835.238 149.44 830.171 149.63C828.524 149.63 826.688 149.883 824.661 150.39C822.634 150.897 820.608 151.657 818.581 152.67C816.618 153.683 814.844 154.95 813.261 156.47V230H779.061ZM1007.48 124.17L936.044 201.12L936.994 194.09L937.374 212.52V230H903.554V167.11V75.91H937.374V134.24L935.854 173.19L931.864 168.44L968.344 124.17H1007.48ZM945.544 185.73L967.964 161.98L1009.95 230H971.764L945.544 185.73ZM1022.14 230V124.17H1056.53V230H1022.14ZM1037.72 111.44C1032.21 111.44 1027.65 109.793 1024.04 106.5C1020.49 103.143 1018.72 98.9 1018.72 93.77C1018.72 90.2867 1019.67 87.0883 1021.57 84.175C1023.47 81.2617 1025.97 78.95 1029.07 77.24C1032.24 75.4667 1035.69 74.58 1039.43 74.58C1045.06 74.58 1049.59 76.2267 1053.01 79.52C1056.49 82.75 1058.24 86.9933 1058.24 92.25C1058.24 97.4433 1056.24 101.94 1052.25 105.74C1048.26 109.54 1043.42 111.44 1037.72 111.44ZM1129.13 231.52C1119.37 231.52 1111.08 230.032 1104.24 227.055C1097.46 224.015 1092.01 219.867 1087.9 214.61C1083.78 209.353 1080.8 203.337 1078.97 196.56C1077.13 189.72 1076.24 182.5 1076.31 174.9C1076.5 163.627 1078.93 154.127 1083.62 146.4C1088.31 138.673 1094.74 132.815 1102.91 128.825C1111.08 124.835 1120.45 122.84 1131.03 122.84C1144.07 122.84 1154.46 125.437 1162.19 130.63C1169.98 135.823 1175.55 142.695 1178.91 151.245C1182.26 159.795 1183.85 169.137 1183.66 179.27C1183.53 190.607 1181.12 200.17 1176.44 207.96C1171.81 215.687 1165.42 221.545 1157.25 225.535C1149.08 229.525 1139.7 231.52 1129.13 231.52ZM1129.89 207.77C1136.66 207.77 1141.35 205.3 1143.95 200.36C1146.61 195.357 1147.94 187.82 1147.94 177.75C1147.94 172.05 1147.4 166.857 1146.32 162.17C1145.24 157.42 1143.44 153.652 1140.91 150.865C1138.37 148.015 1134.89 146.59 1130.46 146.59C1123.55 146.59 1118.74 149.092 1116.02 154.095C1113.36 159.098 1112.03 166.413 1112.03 176.04C1112.03 181.867 1112.56 187.187 1113.64 192C1114.78 196.813 1116.65 200.645 1119.25 203.495C1121.84 206.345 1125.39 207.77 1129.89 207.77Z" fill="#161C2D"/>
<path d="M1479.94 191.022C1479.94 197.15 1482.62 200.588 1486.99 200.588C1491.23 200.588 1496.53 196.024 1498.46 186.395L1501.02 172.702C1499.89 171.764 1497.59 170.951 1495.09 170.951C1486.24 170.889 1479.94 181.268 1479.94 191.022Z" fill="#003399"/>
<path d="M1377.26 170.889C1368.66 170.889 1364.36 183.456 1364.42 191.335C1364.42 197.275 1367.29 201.214 1372.46 201.214C1380.63 201.214 1385.18 189.271 1385.18 180.58C1385.24 175.891 1383.31 170.889 1377.26 170.889Z" fill="#003399"/>
<path d="M1538.42 116.741C1539.17 77.6 1518.41 46.6497 1482.13 33.3942C1461.43 25.8286 1437.8 24.9532 1415.54 30.8932C1394.28 36.583 1376.14 47.8377 1362.55 63.6567C1352.26 54.528 1338.8 49.4008 1324.46 49.4008C1291.36 49.4008 1262.43 76.412 1260 109.613C1259.81 112.177 1259.81 114.678 1259.93 117.241C1238.74 129.434 1224.71 151.255 1222.96 175.265C1220.47 209.717 1243.97 238.979 1277.76 243.294L1278.2 243.356L1518.72 242.793H1519.41L1520.09 242.668C1550.39 236.228 1574.02 209.279 1576.2 178.642C1578.2 150.88 1563.17 126.62 1538.42 116.741ZM1298.03 199.776C1302.89 199.776 1307.75 198.963 1311.24 197.462L1312.49 209.53C1308.75 211.218 1302.45 212.531 1294.1 212.531C1275.71 212.531 1263.24 201.339 1263.24 182.831C1263.24 167.137 1270.28 154.882 1280.82 147.879C1288.05 142.814 1296.65 140.376 1306.5 140.376C1314.05 140.376 1319.72 142.127 1321.72 143.377L1317.66 155.507C1315.61 154.444 1311.06 153.194 1305.07 153.194C1299.09 153.194 1293.35 155.07 1289.11 158.571C1283.19 163.323 1279.51 171.326 1279.51 181.08C1279.51 192.272 1285.74 199.776 1298.03 199.776ZM1334.75 211.468H1319.85L1333.94 137.812H1348.84L1334.75 211.468ZM1370.47 212.656C1357.63 212.656 1349.02 204.277 1349.02 191.71C1349.02 174.077 1361.24 159.634 1379.26 159.634C1392.79 159.634 1400.7 168.95 1400.7 180.518C1400.7 199.025 1388.05 212.656 1370.47 212.656ZM1453.57 194.961C1452.33 201.401 1451.58 206.904 1450.89 211.468H1437.74L1438.67 203.152H1438.48C1433.31 209.78 1427.08 212.593 1420.97 212.593C1412.92 212.593 1408.06 208.029 1408.06 198.4C1408.06 195.586 1408.37 192.585 1409.12 189.084L1414.42 160.759H1429.32L1424.27 187.958C1423.83 190.272 1423.52 192.71 1423.52 194.586C1423.52 197.9 1424.77 200.526 1428.57 200.526C1433.62 200.526 1438.8 194.398 1440.79 184.207L1445.22 160.759H1460.12L1453.57 194.961ZM1512.24 191.772C1510.99 198.337 1510.05 205.465 1509.87 211.468H1496.21L1496.96 203.277H1496.78C1492.35 210.03 1486.12 212.593 1480.19 212.593C1471.59 212.593 1464.48 205.716 1464.48 193.398C1464.48 175.766 1477.2 159.571 1496.34 159.571C1498.4 159.571 1501.08 159.884 1503.26 160.697L1507.62 137.75H1522.52L1512.24 191.772Z" fill="#003399"/>
</svg>
