<svg width="1581" height="274" viewBox="0 0 1581 274" fill="none" xmlns="http://www.w3.org/2000/svg">
<path d="M61.24 152.6C61.24 138.74 63.3667 126.603 67.62 116.19C71.8733 105.703 77.8133 96.94 85.44 89.9C93.0667 82.86 101.94 77.58 112.06 74.06C122.18 70.54 133.107 68.78 144.84 68.78C152.393 68.78 158.7 69.22 163.76 70.1C168.893 70.9067 173.293 71.8233 176.96 72.85C180.7 73.8767 184.22 74.72 187.52 75.38L182.24 110.58C180.7 109.553 178.5 108.307 175.64 106.84C172.853 105.3 169.187 103.98 164.64 102.88C160.167 101.707 154.667 101.12 148.14 101.12C139.78 101.12 132.227 103.027 125.48 106.84C118.733 110.58 113.38 116.117 109.42 123.45C105.46 130.71 103.48 139.62 103.48 150.18C103.48 160.96 105.203 170.383 108.65 178.45C112.17 186.517 117.377 192.823 124.27 197.37C131.163 201.843 139.707 204.08 149.9 204.08C154.52 204.08 159.213 203.53 163.98 202.43C168.747 201.257 173.037 199.863 176.85 198.25C180.663 196.637 183.487 195.06 185.32 193.52V227.18C182.533 228.353 179.233 229.6 175.42 230.92C171.68 232.24 167.317 233.377 162.33 234.33C157.343 235.283 151.66 235.76 145.28 235.76C127.24 235.76 111.95 232.35 99.41 225.53C86.9433 218.71 77.4467 209.067 70.92 196.6C64.4667 184.133 61.24 169.467 61.24 152.6ZM245.942 161.84L244.402 133.02C245.869 128.547 248.325 124.55 251.772 121.03C255.292 117.51 259.472 114.76 264.312 112.78C269.225 110.727 274.542 109.7 280.262 109.7C282.022 109.7 283.782 109.81 285.542 110.03C287.302 110.25 288.549 110.58 289.282 111.02V150.4C288.329 149.74 286.825 149.08 284.772 148.42C282.719 147.687 279.822 147.32 276.082 147.32C270.215 147.32 265.265 148.2 261.232 149.96C257.272 151.647 254.045 153.627 251.552 155.9C249.132 158.173 247.262 160.153 245.942 161.84ZM208.542 234V111.46H243.302L245.282 133.24L248.362 136.54V234H208.542ZM386.371 234V219.48L383.071 217.06V136.76L383.951 135.88L383.071 99.8V55.36H422.231V234H386.371ZM348.751 235.76C340.097 235.76 332.141 233.633 324.881 229.38C317.621 225.053 311.791 218.563 307.391 209.91C302.991 201.183 300.791 190.22 300.791 177.02C300.791 163.16 303.321 151.207 308.381 141.16C313.514 131.113 320.701 123.413 329.941 118.06C339.254 112.633 350.144 109.92 362.611 109.92C370.237 109.92 376.397 110.653 381.091 112.12C385.784 113.587 388.791 114.833 390.111 115.86L383.291 140.94C381.677 139.62 379.257 138.703 376.031 138.19C372.877 137.677 369.431 137.42 365.691 137.42C361.071 137.42 356.964 138.813 353.371 141.6C349.851 144.313 347.064 148.457 345.011 154.03C342.957 159.603 341.931 166.607 341.931 175.04C341.857 186.48 343.691 194.51 347.431 199.13C351.171 203.75 356.157 206.06 362.391 206.06C366.277 206.06 370.164 205.473 374.051 204.3C378.011 203.053 381.091 201.66 383.291 200.12L387.251 220.14C385.564 221.973 383.071 224.137 379.771 226.63C376.544 229.05 372.364 231.177 367.231 233.01C362.171 234.843 356.011 235.76 348.751 235.76ZM456.963 234V70.54H497.443V201H552.663V234H456.963ZM575.311 234V111.46H615.131V234H575.311ZM593.351 96.72C586.971 96.72 581.691 94.8133 577.511 91C573.405 87.1133 571.351 82.2 571.351 76.26C571.351 72.2267 572.451 68.5233 574.651 65.15C576.851 61.7767 579.748 59.1 583.341 57.12C587.008 55.0667 591.005 54.04 595.331 54.04C601.858 54.04 607.101 55.9467 611.061 59.76C615.095 63.5 617.111 68.4133 617.111 74.5C617.111 80.5133 614.801 85.72 610.181 90.12C605.561 94.52 599.951 96.72 593.351 96.72ZM647.274 234V111.46H683.574L684.454 125.76C687.02 123.193 690.394 120.7 694.574 118.28C698.754 115.86 703.41 113.843 708.544 112.23C713.677 110.617 718.994 109.773 724.494 109.7C736.96 109.48 746.31 112.89 752.544 119.93C758.777 126.897 761.894 139.18 761.894 156.78V234H722.074V164.04C722.074 155.093 720.937 148.97 718.664 145.67C716.39 142.297 712.32 140.72 706.454 140.94C704.547 140.94 702.42 141.233 700.074 141.82C697.727 142.407 695.38 143.287 693.034 144.46C690.76 145.633 688.707 147.1 686.874 148.86V234H647.274ZM911.763 111.46L829.043 200.56L830.143 192.42L830.583 213.76V234H791.423V161.18V55.58H830.583V123.12L828.823 168.22L824.203 162.72L866.443 111.46H911.763ZM840.043 182.74L866.003 155.24L914.623 234H870.403L840.043 182.74ZM928.729 234V111.46H968.549V234H928.729ZM946.769 96.72C940.389 96.72 935.109 94.8133 930.929 91C926.823 87.1133 924.769 82.2 924.769 76.26C924.769 72.2267 925.869 68.5233 928.069 65.15C930.269 61.7767 933.166 59.1 936.759 57.12C940.426 55.0667 944.423 54.04 948.749 54.04C955.276 54.04 960.519 55.9467 964.479 59.76C968.513 63.5 970.529 68.4133 970.529 74.5C970.529 80.5133 968.219 85.72 963.599 90.12C958.979 94.52 953.369 96.72 946.769 96.72ZM1052.61 235.76C1041.32 235.76 1031.71 234.037 1023.79 230.59C1015.94 227.07 1009.64 222.267 1004.87 216.18C1000.1 210.093 996.658 203.127 994.532 195.28C992.405 187.36 991.378 179 991.452 170.2C991.672 157.147 994.495 146.147 999.922 137.2C1005.35 128.253 1012.79 121.47 1022.25 116.85C1031.71 112.23 1042.56 109.92 1054.81 109.92C1069.92 109.92 1081.94 112.927 1090.89 118.94C1099.91 124.953 1106.36 132.91 1110.25 142.81C1114.14 152.71 1115.97 163.527 1115.75 175.26C1115.6 188.387 1112.82 199.46 1107.39 208.48C1102.04 217.427 1094.63 224.21 1085.17 228.83C1075.71 233.45 1064.86 235.76 1052.61 235.76ZM1053.49 208.26C1061.34 208.26 1066.76 205.4 1069.77 199.68C1072.85 193.887 1074.39 185.16 1074.39 173.5C1074.39 166.9 1073.77 160.887 1072.52 155.46C1071.27 149.96 1069.18 145.597 1066.25 142.37C1063.32 139.07 1059.28 137.42 1054.15 137.42C1046.16 137.42 1040.58 140.317 1037.43 146.11C1034.35 151.903 1032.81 160.373 1032.81 171.52C1032.81 178.267 1033.43 184.427 1034.68 190C1036 195.573 1038.16 200.01 1041.17 203.31C1044.18 206.61 1048.28 208.26 1053.49 208.26Z" fill="#161C2D"/>
<path d="M1448.94 195.022C1448.94 201.15 1451.62 204.588 1455.99 204.588C1460.23 204.588 1465.53 200.024 1467.46 190.395L1470.02 176.702C1468.89 175.764 1466.59 174.951 1464.09 174.951C1455.24 174.889 1448.94 185.268 1448.94 195.022Z" fill="#003399"/>
<path d="M1346.26 174.889C1337.66 174.889 1333.36 187.456 1333.42 195.335C1333.42 201.275 1336.29 205.214 1341.46 205.214C1349.63 205.214 1354.18 193.271 1354.18 184.58C1354.24 179.891 1352.31 174.889 1346.26 174.889Z" fill="#003399"/>
<path d="M1507.42 120.741C1508.17 81.6 1487.41 50.6497 1451.13 37.3942C1430.43 29.8286 1406.8 28.9532 1384.54 34.8932C1363.28 40.583 1345.14 51.8377 1331.55 67.6567C1321.26 58.528 1307.8 53.4008 1293.46 53.4008C1260.36 53.4008 1231.43 80.412 1229 113.613C1228.81 116.177 1228.81 118.678 1228.93 121.241C1207.74 133.434 1193.71 155.255 1191.96 179.265C1189.47 213.717 1212.97 242.979 1246.76 247.294L1247.2 247.356L1487.72 246.793H1488.41L1489.09 246.668C1519.39 240.228 1543.02 213.279 1545.2 182.642C1547.2 154.88 1532.17 130.62 1507.42 120.741ZM1267.03 203.776C1271.89 203.776 1276.75 202.963 1280.24 201.462L1281.49 213.53C1277.75 215.218 1271.45 216.531 1263.1 216.531C1244.71 216.531 1232.24 205.339 1232.24 186.831C1232.24 171.137 1239.28 158.882 1249.82 151.879C1257.05 146.814 1265.65 144.376 1275.5 144.376C1283.05 144.376 1288.72 146.127 1290.72 147.377L1286.66 159.507C1284.61 158.444 1280.06 157.194 1274.07 157.194C1268.09 157.194 1262.35 159.07 1258.11 162.571C1252.19 167.323 1248.51 175.326 1248.51 185.08C1248.51 196.272 1254.74 203.776 1267.03 203.776ZM1303.75 215.468H1288.85L1302.94 141.812H1317.84L1303.75 215.468ZM1339.47 216.656C1326.63 216.656 1318.02 208.277 1318.02 195.71C1318.02 178.077 1330.24 163.634 1348.26 163.634C1361.79 163.634 1369.7 172.95 1369.7 184.518C1369.7 203.025 1357.05 216.656 1339.47 216.656ZM1422.57 198.961C1421.33 205.401 1420.58 210.904 1419.89 215.468H1406.74L1407.67 207.152H1407.48C1402.31 213.78 1396.08 216.593 1389.97 216.593C1381.92 216.593 1377.06 212.029 1377.06 202.4C1377.06 199.586 1377.37 196.585 1378.12 193.084L1383.42 164.759H1398.32L1393.27 191.958C1392.83 194.272 1392.52 196.71 1392.52 198.586C1392.52 201.9 1393.77 204.526 1397.57 204.526C1402.62 204.526 1407.8 198.398 1409.79 188.207L1414.22 164.759H1429.12L1422.57 198.961ZM1481.24 195.772C1479.99 202.337 1479.05 209.465 1478.87 215.468H1465.21L1465.96 207.277H1465.78C1461.35 214.03 1455.12 216.593 1449.19 216.593C1440.59 216.593 1433.48 209.716 1433.48 197.398C1433.48 179.766 1446.2 163.571 1465.34 163.571C1467.4 163.571 1470.08 163.884 1472.26 164.697L1476.62 141.75H1491.52L1481.24 195.772Z" fill="#003399"/>
</svg>
