<svg xmlns="http://www.w3.org/2000/svg" width="235.819" height="143.6" viewBox="0 0 235.819 143.6">
    <defs>
        <style>
            .prefix__cls-3{fill:#ef6ea9}.prefix__cls-4{fill:#231f20}
        </style>
    </defs>
    <g id="prefix__Cloud_Wink_Icon" data-name="Cloud Wink Icon" transform="translate(-2.9 -3.3)">
        <g id="prefix__Group_3503" data-name="Group 3503">
            <g id="prefix__Group_3500" data-name="Group 3500">
                <path id="prefix__Path_2092" fill="#fff" d="M209.6 65.5c2.2-27.7-15.6-58.6-60-58.6-19.3 0-41.6 10.1-52.6 27-7.7-9.8-27.5-18.1-45.8-6.5-16.9 10.6-20.1 26-18.4 38.1-13.7 5.3-25.3 21.4-25.3 39.2 0 19.6 13.6 33 30.4 37.1h163c19.2-5.1 32.4-20 33.9-39.3 1.3-16.9-9-32.3-25.2-37z" data-name="Path 2092"/>
            </g>
            <path id="prefix__Path_2093" fill="#039" d="M201.1 146.9h-164l-.5-.1c-20.5-5.1-33.7-21.3-33.7-41.3a48.426 48.426 0 0 1 8.2-26.6 44.721 44.721 0 0 1 16.7-15.2 42.8 42.8 0 0 1 2.8-18.6C34 36.7 40 29.8 48.5 24.5a39.008 39.008 0 0 1 29.8-4.8 44.431 44.431 0 0 1 17.6 8.5 64.509 64.509 0 0 1 21.9-17.3 72.1 72.1 0 0 1 31.3-7.6c20.9 0 38.1 6.6 49.6 19.2 9.9 10.7 15.2 25.4 14.8 40.7a39.589 39.589 0 0 1 25.1 40.3c-1.6 20.9-15.8 37.5-37.1 43.2zm-163-8.6h161.8c17.4-4.9 28.9-18.4 30.2-35.4a31.2 31.2 0 0 0-22.2-32.6l-3.2-.9.1-3.3v-.2c1.1-14.1-3.4-27.7-12.3-37.5-9.9-10.8-24.9-16.4-43.3-16.4-19.3 0-39.4 10.3-49 25.1l-3.1 4.7-3.7-4.2c-7.2-8-24.9-15.3-40.3-5.8-17 10.6-17.6 25.8-16.4 33.9l.5 3.4-3.2 1.2c-12.8 5-22.5 20.1-22.5 35.1a32.3 32.3 0 0 0 7.8 21.5 36.661 36.661 0 0 0 18.8 11.4z" data-name="Path 2093"/>
            <g id="prefix__Group_3501" data-name="Group 3501">
                <circle id="prefix__Ellipse_446" cx="10.6" cy="10.6" r="10.6" class="prefix__cls-3" data-name="Ellipse 446" transform="translate(50.4 78.7)"/>
            </g>
            <g id="prefix__Group_3502" data-name="Group 3502">
                <circle id="prefix__Ellipse_447" cx="10.6" cy="10.6" r="10.6" class="prefix__cls-3" data-name="Ellipse 447" transform="translate(169.2 78.7)"/>
            </g>
            <circle id="prefix__Ellipse_448" cx="10.9" cy="10.9" r="10.9" class="prefix__cls-4" data-name="Ellipse 448" transform="translate(141.5 54.5)"/>
            <path id="prefix__Path_2094" d="M146 98c-1.8-.2-4.3.4-4.6 2.5-.2.8-2.3 13.6-20.2 13.6s-20.1-12.8-20.2-13.6c-.4-2-2.8-2.7-4.6-2.5a3.391 3.391 0 0 0-3.1 3.8c.2 1.3.8 4.8 4.5 9.5 3.5 4.3 11 9.5 23.5 9.5s20-5.2 23.5-9.5c3.8-4.7 4.3-8.2 4.5-9.5A3.836 3.836 0 0 0 146 98z" class="prefix__cls-4" data-name="Path 2094"/>
            <path id="prefix__Path_2095" d="M105.9 65.8a20.1 20.1 0 0 0-32.4 0 3.936 3.936 0 0 0 1.3 5.4 3.606 3.606 0 0 0 2 .6 3.859 3.859 0 0 0 3.3-1.9 11.426 11.426 0 0 1 9.5-4.5 11.565 11.565 0 0 1 9.6 4.5 3.954 3.954 0 0 0 3.3 1.9 3.842 3.842 0 0 0 3.9-3.9 3.645 3.645 0 0 0-.5-2.1z" class="prefix__cls-4" data-name="Path 2095"/>
        </g>
    </g>
</svg>
